<svg xmlns="http://www.w3.org/2000/svg" enable-background="new 0 0 24 24" viewBox="0 0 24 24" id="sort-amount-up">  <path fill="#000000" d="M7.7,8.3l-2-2C5.6,6.2,5.5,6.1,5.4,6.1C5.1,6,4.9,6,4.6,6.1c-0.1,0-0.2,0.1-0.3,0.2l-2,2c-0.4,0.4-0.4,1,0,1.4c0.4,0.4,1,0.4,1.4,0L4,9.4V17c0,0.6,0.4,1,1,1s1-0.4,1-1V9.4l0.3,0.3c0.4,0.4,1,0.4,1.4,0c0,0,0,0,0,0C8.1,9.3,8.1,8.7,7.7,8.3C7.7,8.3,7.7,8.3,7.7,8.3z M11,8h10c0.6,0,1-0.4,1-1s-0.4-1-1-1H11c-0.6,0-1,0.4-1,1S10.4,8,11,8z M21,11H11c-0.6,0-1,0.4-1,1s0.4,1,1,1h10c0.6,0,1-0.4,1-1S21.6,11,21,11z M21,16H11c-0.6,0-1,0.4-1,1s0.4,1,1,1h10c0.6,0,1-0.4,1-1S21.6,16,21,16z"></path></svg>