<svg xmlns="http://www.w3.org/2000/svg" viewBox="0 0 24 24" id="Code">
  <path fill="#ffffff" d="M6.58 17.68c-.26 0-.51-.1-.71-.29L1.3 12.81c-.38-.38-.39-1.01-.02-1.4l4.57-4.78a.996.996 0 1 1 1.44 1.38l-3.9 4.07 3.88 3.88c.39.39.39 1.02 0 1.41-.18.21-.43.31-.69.31zm10.84 0c-.26 0-.51-.1-.71-.29a.996.996 0 0 1 0-1.41l3.88-3.88-3.9-4.07a.996.996 0 1 1 1.44-1.38l4.57 4.78c.38.39.37 1.01-.02 1.4l-4.57 4.57c-.18.18-.44.28-.69.28zm-7.41 2.99a1.004 1.004 0 0 1-.97-1.25l3.98-15.33c.14-.53.68-.86 1.22-.72.53.14.86.68.72 1.22l-3.98 15.33c-.12.45-.53.75-.97.75z" class="color116fff svgShape"></path>
</svg>
