<svg xmlns="http://www.w3.org/2000/svg" enable-background="new 0 0 24 24" viewBox="0 0 24 24" id="sort-amount-down">  <path fill="#FFFFFF" d="M21,11H11c-0.6,0-1,0.4-1,1s0.4,1,1,1h10c0.6,0,1-0.4,1-1S21.6,11,21,11z M6.3,14.3L6,14.6V7c0-0.6-0.4-1-1-1S4,6.4,4,7v7.6l-0.3-0.3c-0.4-0.4-1-0.4-1.4,0c-0.4,0.4-0.4,1,0,1.4l2,2c0.1,0.1,0.2,0.2,0.3,0.2c0.2,0.1,0.5,0.1,0.8,0c0.1,0,0.2-0.1,0.3-0.2l2-2c0.4-0.4,0.4-1,0-1.4C7.3,13.9,6.7,13.9,6.3,14.3z M11,8h10c0.6,0,1-0.4,1-1s-0.4-1-1-1H11c-0.6,0-1,0.4-1,1S10.4,8,11,8z M21,16H11c-0.6,0-1,0.4-1,1s0.4,1,1,1h10c0.6,0,1-0.4,1-1S21.6,16,21,16z"></path></svg>