<svg xmlns="http://www.w3.org/2000/svg" enable-background="new 0 0 24 24" viewBox="0 0 24 24" id="sliders-v">  <path fill="#8E8E93" d="M5,10L5,10c-0.6,0-1,0.4-1,1v10c0,0.6,0.4,1,1,1s1-0.4,1-1V11C6,10.4,5.6,10,5,10z M7,6H6V3c0-0.6-0.4-1-1-1S4,2.4,4,3v3H3C2.4,6,2,6.4,2,7s0.4,1,1,1h4c0.6,0,1-0.4,1-1S7.6,6,7,6z M12,18L12,18c-0.6,0-1,0.4-1,1v2c0,0.6,0.4,1,1,1s1-0.4,1-1v-2C13,18.4,12.6,18,12,18z M21,10h-1V3c0-0.6-0.4-1-1-1s-1,0.4-1,1v7h-1c-0.6,0-1,0.4-1,1s0.4,1,1,1h4c0.6,0,1-0.4,1-1S21.6,10,21,10z M19,14L19,14c-0.6,0-1,0.4-1,1v6c0,0.6,0.4,1,1,1s1-0.4,1-1v-6C20,14.4,19.6,14,19,14z M14,14h-1V3c0-0.6-0.4-1-1-1s-1,0.4-1,1v11h-1c-0.6,0-1,0.4-1,1s0.4,1,1,1h4c0.6,0,1-0.4,1-1S14.6,14,14,14z"></path></svg>