<svg xmlns="http://www.w3.org/2000/svg" enable-background="new 0 0 24 24" viewBox="0 0 24 24" id="code-branch">  <path fill="#A020F0" d="M19.9,8.2c-0.4-1.2-1.6-2.1-2.9-2.1c-1.7,0-3,1.3-3,3c0,1.2,0.7,2.3,1.8,2.8c-0.3,0.7-1,1.2-1.8,1.2h-4c-0.7,0-1.4,0.2-2,0.6V7.9C9.6,7.3,10.4,5.6,9.8,4C9.3,2.5,7.6,1.7,6,2.2C4.4,2.8,3.6,4.5,4.2,6c0.3,0.9,1,1.5,1.8,1.8v8.4c-1.6,0.6-2.4,2.3-1.8,3.8c0.6,1.6,2.3,2.4,3.8,1.8c1.6-0.6,2.4-2.3,1.8-3.8c-0.3-0.8-0.9-1.4-1.7-1.7c0.3-0.7,1-1.2,1.8-1.2h4c1.9,0,3.5-1.3,3.9-3.2C19.5,11.4,20.4,9.7,19.9,8.2z"></path></svg>